<?xml version="1.0" encoding="iso-8859-1"?>
<svg width="187" height="11" viewBox="0 0 187 11" fill="none" xmlns="http://www.w3.org/2000/svg">
<path d="M180.178 10.2465V6.67645L176.993 0.767487H179.89L181.578 4.78887L183.294 0.767487H186.054L182.828 6.70381V10.2465H180.178Z" fill="#04705B"/>
<path d="M171.81 10.2465V0.767487H174.46V8.11266H178.427V10.2465H171.81Z" fill="#04705B"/>
<path d="M162.029 10.2465V0.767487H165.749C167.213 0.767487 168.348 1.17783 169.154 1.99852C169.959 2.81921 170.362 3.98639 170.362 5.50013C170.362 6.49411 170.183 7.35122 169.826 8.07163C169.469 8.78289 168.957 9.32548 168.289 9.69933C167.63 10.0641 166.838 10.2465 165.914 10.2465H162.029ZM164.678 2.79185V8.22209H165.584C166.966 8.22209 167.657 7.35583 167.657 5.62324V5.37703C167.657 3.65358 166.975 2.79185 165.612 2.79185H164.678Z" fill="#04705B"/>
<path d="M153.84 4.31013V10.2465H151.561V0.767487H154.307L157.643 6.75852V0.767487H159.921V10.2465H157.176L153.84 4.31013Z" fill="#04705B"/>
<path d="M143.423 10.2465V0.767487H150.054V2.7645H146.004V4.41956H149.299V6.41657H146.004V8.24944H150.081V10.2465H143.423Z" fill="#04705B"/>
<path d="M138.613 10.2465V0.767578H141.263V10.2465H138.613Z" fill="#04705B"/>
<path d="M129.402 10.2465V0.767487H133.329C134.418 0.767487 135.282 1.04558 135.923 1.60186C136.564 2.14898 136.884 2.89675 136.884 3.84507C136.884 4.40135 136.756 4.89829 136.5 5.33599C136.253 5.7737 135.9 6.1248 135.443 6.38921L137.543 10.2465H134.797L133.123 6.93634H131.915V10.2465H129.402ZM131.915 5.15818H133.04C133.443 5.15818 133.754 5.04875 133.974 4.8299C134.203 4.61105 134.317 4.29645 134.317 3.88611C134.317 3.05627 133.882 2.6414 133.013 2.6414H131.915V5.15818Z" fill="#04705B"/>
<path d="M121.761 10.2465V0.767487H128.144V2.79185H124.41V4.77519H127.43V6.79956H124.41V10.2465H121.761Z" fill="#04705B"/>
<path d="M115.546 0.756836H108.878V2.78902H115.546V0.756836Z" fill="#04705B"/>
<path d="M115.546 4.43045H108.878V6.46264H115.546V4.43045Z" fill="#04705B"/>
<path d="M115.546 8.18216H108.878V10.2143H115.546V8.18216Z" fill="#04705B"/>
<path d="M103.795 8.36779C104.097 8.36779 104.38 8.34958 104.646 8.31308V6.56227H103.067V4.7294H107.007V9.62618C106.559 9.85417 106 10.0411 105.332 10.187C104.664 10.3238 104 10.3922 103.342 10.3922C102.344 10.3922 101.488 10.2007 100.774 9.81767C100.07 9.42554 99.5344 8.86935 99.1683 8.14894C98.8022 7.42853 98.6191 6.57142 98.6191 5.57744C98.6191 3.97256 99.0631 2.73692 99.9508 1.87066C100.848 0.995258 102.111 0.557556 103.74 0.557556C104.225 0.557556 104.733 0.616802 105.263 0.735372C105.803 0.844797 106.261 0.990724 106.636 1.17307V3.08802C106.215 2.95124 105.762 2.84181 105.277 2.75974C104.792 2.67767 104.362 2.63664 103.987 2.63664C103.072 2.63664 102.394 2.86917 101.955 3.33422C101.516 3.79014 101.296 4.48772 101.296 5.42698V5.63216C101.296 7.45588 102.129 8.36779 103.795 8.36779Z" fill="#04705B"/>
<path d="M88.7993 10.2143V0.735306H92.5196C93.9839 0.735306 95.1187 1.14565 95.9241 1.96634C96.7295 2.78703 97.1322 3.95421 97.1322 5.46795C97.1322 6.46192 96.9537 7.31904 96.5968 8.03945C96.2399 8.75071 95.7274 9.2933 95.0593 9.66715C94.4003 10.0319 93.6086 10.2143 92.6843 10.2143H88.7993ZM91.4488 2.75967V8.18991H92.3549C93.7368 8.18991 94.4278 7.32365 94.4278 5.59105V5.34485C94.4278 3.6214 93.7459 2.75967 92.3823 2.75967H91.4488Z" fill="#04705B"/>
<path d="M80.6616 10.2143V0.735306H87.2922V2.73232H83.2425V4.38738H86.5372V6.38439H83.2425V8.21726H87.3197V10.2143H80.6616Z" fill="#04705B"/>
<path d="M72.9668 10.2143V0.735306H75.6163V8.08048H79.5837V10.2143H72.9668Z" fill="#04705B"/>
<path d="M66.7927 7.13669V10.2143H64.2393V0.735306H68.138C69.2271 0.735306 70.0874 1.02255 70.7189 1.59703C71.3595 2.16237 71.6798 2.94202 71.6798 3.936C71.6798 4.92997 71.3595 5.71416 70.7189 6.28864C70.0874 6.85398 69.2271 7.13669 68.138 7.13669H66.7927ZM66.7927 5.22174H67.7536C68.1746 5.22174 68.4995 5.10779 68.7283 4.87979C68.9571 4.65179 69.0715 4.3372 69.0715 3.936C69.0715 3.5348 68.9571 3.2202 68.7283 2.9922C68.4995 2.76421 68.1746 2.65025 67.7536 2.65025H66.7927V5.22174Z" fill="#04705B"/>
<path d="M57.4652 0.756836H50.7974V2.78902H57.4652V0.756836Z" fill="#04705B"/>
<path d="M57.4652 4.43045H50.7974V6.46263H57.4652V4.43045Z" fill="#04705B"/>
<path d="M57.4652 8.18216H50.7974V10.2143H57.4652V8.18216Z" fill="#04705B"/>
<path d="M44.2369 10.2143V2.80071H41.4775V0.735306H49.6457V2.80071H46.8864V10.2143H44.2369Z" fill="#04705B"/>
<path d="M39.2467 10.2143L38.7251 8.38141H35.8147L35.3205 10.2143H32.52L35.8696 0.735306H38.7937L42.1433 10.2143H39.2467ZM36.3089 6.52117H38.2308L37.2562 3.00588L36.3089 6.52117Z" fill="#04705B"/>
<path d="M29.2027 10.2143V4.36002L27.5553 8.05312H25.2353L23.5879 4.36002V10.2143H21.3091V0.735306H24.1233L26.4296 5.8783L28.7634 0.735306H31.4815V10.2143H29.2027Z" fill="#04705B"/>
<path d="M16.5776 10.2143V0.735306H19.2271V10.2143H16.5776Z" fill="#04705B"/>
<path d="M8.82764 10.2143V0.735306H11.4771V8.08048H15.4445V10.2143H8.82764Z" fill="#04705B"/>
<path d="M7.42682 9.96813C6.67633 10.2508 5.80692 10.3922 4.81851 10.3922C3.24435 10.3922 2.04546 9.97728 1.22179 9.14744C0.407265 8.31763 0 7.10484 0 5.50905C0 3.94062 0.425567 2.72326 1.2767 1.85698C2.13699 0.990698 3.33134 0.557556 4.85969 0.557556C5.70165 0.557556 6.5116 0.689779 7.28954 0.954223V2.95124C6.52078 2.7871 5.86184 2.70503 5.31272 2.70503C4.47076 2.70503 3.83465 2.92844 3.40453 3.37526C2.97442 3.81296 2.75932 4.46495 2.75932 5.33124V5.63216C2.75932 6.4802 2.96524 7.12763 3.37708 7.57445C3.79809 8.02128 4.41585 8.24468 5.23035 8.24468C5.85266 8.24468 6.58487 8.15349 7.42682 7.97112V9.96813Z" fill="#04705B"/>
</svg>
